<svg viewBox="0 0 641.9163 535.6107" fill="none" xmlns="http://www.w3.org/2000/svg" id="e0dcb589" x="0" y="0"><g id="Nexora-Desktop/after review" data-node-id="1:87" clip-path="url(#clip0_1_87)"><g id="Group 9" data-node-id="1:452">
<g id="Group 11" data-node-id="1:453">
<rect id="Rectangle 29" data-node-id="1:454" width="454.358" height="284.554" transform="matrix(0.866025, -0.5, 0.866025, 0.5, 1, 227.75639999999976)" fill="url(#paint28_linear_1_87)" fill-opacity="0.2"/>
<g id="Group 10" data-node-id="1:455">
<g id="python" data-node-id="1:456">
<path id="Vector_30" data-node-id="1:457" d="M203.068,301.9264c-9.333,5.39 -4.682,7.4 -4.682,7.4l4.225,2.43l8.906,-5.14l1.266,0.73l-12.444,7.18c0,0 -6.653,3.06 2.813,8.52c9.467,5.47 14.344,2.26 14.344,2.26l3.11,-1.79l-4.392,-2.54c0,0 -5.408,-2.93 -0.111,-5.99l8.834,-5.1c0,0 5.043,-2.81 0.141,-5.64l-8.105,-4.68c0,0 -4.152,-3.27 -13.905,2.36zM200.991,306.3964c0.21,-0.12 0.46,-0.22 0.736,-0.28c0.275,-0.07 0.57,-0.1 0.869,-0.1c0.298,0 0.594,0.03 0.87,0.1c0.276,0.07 0.527,0.16 0.738,0.29c0.212,0.12 0.38,0.26 0.495,0.42c0.115,0.16 0.175,0.33 0.175,0.5c0.001,0.18 -0.057,0.35 -0.17,0.51c-0.114,0.16 -0.281,0.3 -0.492,0.42c-0.21,0.12 -0.46,0.22 -0.735,0.28c-0.276,0.07 -0.571,0.1 -0.869,0.1c-0.299,0 -0.594,-0.03 -0.87,-0.1c-0.276,-0.06 -0.527,-0.16 -0.738,-0.28c-0.212,-0.13 -0.38,-0.27 -0.495,-0.43c-0.115,-0.16 -0.175,-0.33 -0.176,-0.5c-0.001,-0.17 0.057,-0.34 0.171,-0.5c0.114,-0.16 0.281,-0.31 0.491,-0.43z" fill="url(#paint29_linear_1_87)"/>
<path id="Vector_31" data-node-id="1:458" d="M240.096,322.9964c9.333,-5.39 4.682,-7.4 4.682,-7.4l-4.225,-2.43l-8.907,5.15l-1.265,-0.73l12.443,-7.19c0,0 6.653,-3.05 -2.813,-8.52c-9.466,-5.46 -14.343,-2.26 -14.343,-2.26l-3.111,1.79l4.393,2.54c0,0 5.407,2.93 0.11,5.99l-8.833,5.1c0,0 -5.044,2.82 -0.141,5.65l8.105,4.68c0,0 4.152,3.26 13.905,-2.37zM242.173,318.5264c-0.21,0.12 -0.46,0.22 -0.736,0.28c-0.275,0.07 -0.57,0.1 -0.869,0.1c-0.298,0 -0.594,-0.03 -0.87,-0.1c-0.276,-0.07 -0.527,-0.16 -0.738,-0.28c-0.212,-0.13 -0.38,-0.27 -0.495,-0.43c-0.115,-0.16 -0.175,-0.33 -0.176,-0.5c0,-0.18 0.058,-0.35 0.171,-0.5c0.114,-0.16 0.281,-0.31 0.492,-0.43c0.21,-0.12 0.46,-0.22 0.735,-0.28c0.275,-0.07 0.571,-0.1 0.869,-0.1c0.299,0 0.594,0.03 0.87,0.1c0.276,0.07 0.527,0.16 0.738,0.29c0.212,0.12 0.38,0.26 0.495,0.42c0.115,0.16 0.175,0.33 0.176,0.5c0.001,0.18 -0.058,0.35 -0.171,0.51c-0.114,0.15 -0.281,0.3 -0.491,0.42z" fill="url(#paint30_linear_1_87)"/>
</g>
<g id="nodejs" data-node-id="1:459">
<path id="Vector_32" data-node-id="1:460" d="M324.01,231.3264c0.41,-0.97 1.78,-1.77 3.47,-2c8.44,-1.23 16.88,-2.47 25.32,-3.7c1.59,-0.23 3.42,0.06 4.62,0.77l18.99,10.96c1.26,0.72 1.73,1.83 1.26,2.77c-2.13,4.86 -4.26,9.71 -6.38,14.56c-0.43,1 -1.88,1.77 -3.62,1.97c-2.55,0.35 -5.09,0.71 -7.64,1.07c-0.52,0.06 -1.05,0.18 -1.61,0.12c-0.08,-0.28 0.24,-0.51 0.41,-0.75c0.44,-0.51 0.69,-1.06 0.95,-1.61c0.04,-0.15 0.27,-0.24 0.52,-0.27c2.17,-0.3 4.35,-0.59 6.51,-0.9c0.47,-0.07 0.53,-0.37 0.63,-0.6c2.08,-4.77 4.18,-9.53 6.26,-14.3c0.1,-0.17 -0.01,-0.35 -0.25,-0.47c-6.26,-3.62 -12.52,-7.23 -18.79,-10.85c-0.23,-0.16 -0.59,-0.21 -0.91,-0.15c-8.38,1.23 -16.75,2.45 -25.13,3.68c-0.15,0.02 -0.3,0.06 -0.41,0.12c-0.11,0.07 -0.18,0.15 -0.21,0.24c-2.12,4.83 -4.24,9.67 -6.36,14.5c-0.11,0.19 -0.03,0.4 0.25,0.53c6.26,3.62 12.52,7.24 18.79,10.85c0.1,0.07 0.23,0.12 0.37,0.14c0.15,0.03 0.3,0.03 0.44,0c2.24,-0.32 4.48,-0.65 6.71,-0.98c1.24,-0.19 2.48,-0.6 3.01,-1.3c0.47,-0.61 0.18,-1.4 -0.69,-1.89c-6.22,-3.6 -12.46,-7.19 -18.68,-10.79c-0.29,-0.15 -0.27,-0.42 0.01,-0.55c0.67,-0.39 1.34,-0.79 2.02,-1.17c0.28,-0.16 0.77,-0.1 1.01,0.08c6.26,3.62 12.54,7.23 18.79,10.85c1.67,0.97 2.84,2.39 2.2,3.7c-0.82,1.61 -3.25,2.78 -5.98,3.26c-2.35,0.42 -4.78,0.72 -7.16,1.09c-1.63,0.27 -3.56,0 -4.81,-0.73l-18.98,-10.96c-1.25,-0.71 -1.75,-1.8 -1.31,-2.73c2.13,-4.85 4.25,-9.71 6.38,-14.56z" fill="#8CC84B"/>
<path id="Vector_33" data-node-id="1:461" d="M341.75,236.2664c2.15,-1.42 4.67,-2.8 7.93,-3.3c2.52,-0.4 5.33,0.2 7.24,1.27c0.21,0.17 0.09,0.39 -0.15,0.52c-0.67,0.38 -1.33,0.77 -2.01,1.15c-0.27,0.17 -0.71,0.1 -1.01,-0.03c-1.09,-0.41 -2.44,-0.65 -3.68,-0.44c-1.88,0.33 -3.27,1.18 -4.6,1.96c-0.92,0.59 -1.88,1.25 -2.1,2.08c-0.18,0.64 0.56,1.29 1.53,1.59c0.75,0.18 1.52,-0.06 2.16,-0.24c3.53,-1.16 6.39,-2.9 10.11,-3.88c1.53,-0.41 3.43,-0.59 5.06,-0.09c2.17,0.67 3.94,1.95 4.16,3.37c0.19,1.16 -0.54,2.27 -1.53,3.22c-1.35,1.26 -3.16,2.32 -5.13,3.24c-1.89,0.86 -4.1,1.6 -6.61,1.65c-2.12,0.05 -4.25,-0.55 -5.73,-1.47c-0.24,-0.15 -0.18,-0.4 0.08,-0.52c0.66,-0.39 1.33,-0.78 2.01,-1.16c0.25,-0.17 0.69,-0.14 0.97,0c0.98,0.43 2.19,0.77 3.4,0.65c2.3,-0.25 3.94,-1.27 5.53,-2.16c1.24,-0.78 2.67,-1.63 2.82,-2.76c0.05,-0.62 -0.65,-1.22 -1.54,-1.56c-0.79,-0.26 -1.71,-0.07 -2.43,0.12c-3.65,1.05 -6.28,2.96 -10.02,3.92c-1.51,0.4 -3.35,0.57 -4.96,0.12c-2.28,-0.63 -4.1,-1.99 -4.15,-3.46c-0.08,-1.44 1.17,-2.73 2.65,-3.79z" fill="#8CC84B"/>
</g>
</g>
<g id="Group 7" data-node-id="1:462">
<g id="flutter" data-node-id="1:463">
<g id="flutter_2" data-node-id="1:464">
<path id="Vector_34" data-node-id="1:465" d="M391.73,98.8864l-21.1,0.01l0.09,-39.55l21.13,-12.19zM423.41,65.3764l-21.12,12.2l-0.02,9.12l21.1,-0.02" fill="#42A5F5" fill-opacity="0.8"/>
<path id="Vector_35" data-node-id="1:466" d="M423.34,98.8564l15.8,-0.01l21.13,-12.19l-36.9,0.02" fill="#0D47A1"/>
<path id="Vector_36" data-node-id="1:467" d="M402.27,98.8664l0.03,-12.16l21.06,-0.02l-0.02,12.16z" fill="#42A5F5"/>
<path id="Vector_37" data-node-id="1:468" d="M423.34,98.8464l0.02,-12.16h2.94l-0.02,12.16z" fill="url(#paint31_linear_1_87)"/>
<path id="Vector_38" data-node-id="1:469" d="M423.34,98.8564l10.27,-12.16l-10.25,-0.02" fill="url(#paint32_linear_1_87)"/>
</g>
</g>
<g id="vscode" data-node-id="1:470">
<g id="vscode_2" data-node-id="1:471">
<path id="Vector_39" data-node-id="1:472" d="M212.043,173.9364c0,0 -2.318,0.22 -1.991,-1.46l0.416,-4.12c0,0 -0.051,-1.28 2.076,-1.37l61.067,-4.96l12.582,7.26c0,0 1.958,1.15 -0.808,2.5z" fill="#2489CA"/>
<path id="Vector_40" data-node-id="1:473" d="M229.13,173.4364l-0.856,9.87c0,0 -0.24,0.92 1.903,1.1l7.94,-0.23c0,0 2.048,0.04 2.307,-1.5l2.336,-9.64z" fill="#1070B3"/>
<path id="Vector_41" data-node-id="1:474" d="M244.958,164.3664l3.955,-16.72l-12.621,-7.17c0,0 -3.435,-1.17 -4.359,1.01l-2.068,24.1z" fill="#0877B9"/>
<path id="Vector_42" data-node-id="1:475" d="M285.402,171.7964c1.93,0.01 2.77,-0.84 2.77,-0.84l6.539,-11.04c0.529,-1.59 -1.084,-2.26 -1.084,-2.26l-37.566,-21.69c-1.651,-0.95 -3.921,-0.3 -3.921,-0.3l-16.454,3.34c-3.924,0.54 -3.753,2.48 -3.753,2.48c0,0 0.581,-2.03 4.359,-1.01l49.671,28.68c0.342,0.2 0.604,0.44 0.76,0.69c0.296,0.51 0.209,1.2 -1.545,1.94z" fill="#3C99D4"/>
</g>
</g>
<g id="react" data-node-id="1:476">
<g id="react_2" data-node-id="1:477">
<path id="Vector_43" data-node-id="1:478" d="M130.771,237.8764c2.852,-1.64 2.84,-4.32 -0.027,-5.97c-2.868,-1.66 -7.504,-1.67 -10.357,-0.02c-2.852,1.65 -2.84,4.32 0.027,5.98c2.868,1.65 7.505,1.66 10.357,0.01z" fill="#61DAFB"/>
<path id="Vector_44" data-node-id="1:479" d="M136.216,241.0264c15.305,-8.84 22.95,-18.75 17.076,-22.14c-5.875,-3.39 -23.045,1.02 -38.35,9.86c-15.305,8.83 -22.95,18.75 -17.076,22.14c5.875,3.39 23.045,-1.03 38.35,-9.86z" stroke="#61DAFB" stroke-width="5"/>
<path id="Vector_45" data-node-id="1:480" d="M121.734,243.2464c20.977,3.27 39.704,2.18 41.828,-2.43c2.123,-4.62 -13.161,-11.02 -34.138,-14.29c-20.977,-3.28 -39.704,-2.19 -41.828,2.43c-2.123,4.62 13.161,11.01 34.138,14.29z" stroke="#61DAFB" stroke-width="5"/>
<path id="Vector_46" data-node-id="1:481" d="M111.097,237.1064c5.672,12.11 16.754,20.93 24.752,19.71c7.998,-1.23 9.884,-12.04 4.212,-24.15c-5.672,-12.11 -16.754,-20.94 -24.752,-19.71c-7.998,1.22 -9.884,12.04 -4.212,24.15z" stroke="#61DAFB" stroke-width="5"/>
</g>
</g>
</g>
</g>
<g id="Group 12" data-node-id="1:482">
<rect id="Rectangle 29_2" data-node-id="1:483" width="454.358" height="284.554" transform="matrix(0.866025, -0.5, 0.866025, 0.5, 1, 227.75639999999976)" fill="url(#paint33_linear_1_87)" fill-opacity="0.2"/>
<g id="Group 10_2" data-node-id="1:484">
<g id="python_2" data-node-id="1:485">
<path id="Vector_47" data-node-id="1:486" d="M203.068,301.9264c-9.333,5.39 -4.682,7.4 -4.682,7.4l4.225,2.43l8.906,-5.14l1.266,0.73l-12.444,7.18c0,0 -6.653,3.06 2.813,8.52c9.467,5.47 14.344,2.26 14.344,2.26l3.11,-1.79l-4.392,-2.54c0,0 -5.408,-2.93 -0.111,-5.99l8.834,-5.1c0,0 5.043,-2.81 0.141,-5.64l-8.105,-4.68c0,0 -4.152,-3.27 -13.905,2.36zM200.991,306.3964c0.21,-0.12 0.46,-0.22 0.736,-0.28c0.275,-0.07 0.57,-0.1 0.869,-0.1c0.298,0 0.594,0.03 0.87,0.1c0.276,0.07 0.527,0.16 0.738,0.29c0.212,0.12 0.38,0.26 0.495,0.42c0.115,0.16 0.175,0.33 0.175,0.5c0.001,0.18 -0.057,0.35 -0.17,0.51c-0.114,0.16 -0.281,0.3 -0.492,0.42c-0.21,0.12 -0.46,0.22 -0.735,0.28c-0.276,0.07 -0.571,0.1 -0.869,0.1c-0.299,0 -0.594,-0.03 -0.87,-0.1c-0.276,-0.06 -0.527,-0.16 -0.738,-0.28c-0.212,-0.13 -0.38,-0.27 -0.495,-0.43c-0.115,-0.16 -0.175,-0.33 -0.176,-0.5c-0.001,-0.17 0.057,-0.34 0.171,-0.5c0.114,-0.16 0.281,-0.31 0.491,-0.43z" fill="url(#paint34_linear_1_87)"/>
<path id="Vector_48" data-node-id="1:487" d="M240.096,322.9964c9.333,-5.39 4.682,-7.4 4.682,-7.4l-4.225,-2.43l-8.907,5.15l-1.265,-0.73l12.443,-7.19c0,0 6.653,-3.05 -2.813,-8.52c-9.466,-5.46 -14.343,-2.26 -14.343,-2.26l-3.111,1.79l4.393,2.54c0,0 5.407,2.93 0.11,5.99l-8.833,5.1c0,0 -5.044,2.82 -0.141,5.65l8.105,4.68c0,0 4.152,3.26 13.905,-2.37zM242.173,318.5264c-0.21,0.12 -0.46,0.22 -0.736,0.28c-0.275,0.07 -0.57,0.1 -0.869,0.1c-0.298,0 -0.594,-0.03 -0.87,-0.1c-0.276,-0.07 -0.527,-0.16 -0.738,-0.28c-0.212,-0.13 -0.38,-0.27 -0.495,-0.43c-0.115,-0.16 -0.175,-0.33 -0.176,-0.5c0,-0.18 0.058,-0.35 0.171,-0.5c0.114,-0.16 0.281,-0.31 0.492,-0.43c0.21,-0.12 0.46,-0.22 0.735,-0.28c0.275,-0.07 0.571,-0.1 0.869,-0.1c0.299,0 0.594,0.03 0.87,0.1c0.276,0.07 0.527,0.16 0.738,0.29c0.212,0.12 0.38,0.26 0.495,0.42c0.115,0.16 0.175,0.33 0.176,0.5c0.001,0.18 -0.058,0.35 -0.171,0.51c-0.114,0.15 -0.281,0.3 -0.491,0.42z" fill="url(#paint35_linear_1_87)"/>
</g>
<g id="nodejs_2" data-node-id="1:488">
<path id="Vector_49" data-node-id="1:489" d="M324.01,231.3264c0.41,-0.97 1.78,-1.77 3.47,-2c8.44,-1.23 16.88,-2.47 25.32,-3.7c1.59,-0.23 3.42,0.06 4.62,0.77l18.99,10.96c1.26,0.72 1.73,1.83 1.26,2.77c-2.13,4.86 -4.26,9.71 -6.38,14.56c-0.43,1 -1.88,1.77 -3.62,1.97c-2.55,0.35 -5.09,0.71 -7.64,1.07c-0.52,0.06 -1.05,0.18 -1.61,0.12c-0.08,-0.28 0.24,-0.51 0.41,-0.75c0.44,-0.51 0.69,-1.06 0.95,-1.61c0.04,-0.15 0.27,-0.24 0.52,-0.27c2.17,-0.3 4.35,-0.59 6.51,-0.9c0.47,-0.07 0.53,-0.37 0.63,-0.6c2.08,-4.77 4.18,-9.53 6.26,-14.3c0.1,-0.17 -0.01,-0.35 -0.25,-0.47c-6.26,-3.62 -12.52,-7.23 -18.79,-10.85c-0.23,-0.16 -0.59,-0.21 -0.91,-0.15c-8.38,1.23 -16.75,2.45 -25.13,3.68c-0.15,0.02 -0.3,0.06 -0.41,0.12c-0.11,0.07 -0.18,0.15 -0.21,0.24c-2.12,4.83 -4.24,9.67 -6.36,14.5c-0.11,0.19 -0.03,0.4 0.25,0.53c6.26,3.62 12.52,7.24 18.79,10.85c0.1,0.07 0.23,0.12 0.37,0.14c0.15,0.03 0.3,0.03 0.44,0c2.24,-0.32 4.48,-0.65 6.71,-0.98c1.24,-0.19 2.48,-0.6 3.01,-1.3c0.47,-0.61 0.18,-1.4 -0.69,-1.89c-6.22,-3.6 -12.46,-7.19 -18.68,-10.79c-0.29,-0.15 -0.27,-0.42 0.01,-0.55c0.67,-0.39 1.34,-0.79 2.02,-1.17c0.28,-0.16 0.77,-0.1 1.01,0.08c6.26,3.62 12.54,7.23 18.79,10.85c1.67,0.97 2.84,2.39 2.2,3.7c-0.82,1.61 -3.25,2.78 -5.98,3.26c-2.35,0.42 -4.78,0.72 -7.16,1.09c-1.63,0.27 -3.56,0 -4.81,-0.73l-18.98,-10.96c-1.25,-0.71 -1.75,-1.8 -1.31,-2.73c2.13,-4.85 4.25,-9.71 6.38,-14.56z" fill="#8CC84B"/>
<path id="Vector_50" data-node-id="1:490" d="M341.75,236.2664c2.15,-1.42 4.67,-2.8 7.93,-3.3c2.52,-0.4 5.33,0.2 7.24,1.27c0.21,0.17 0.09,0.39 -0.15,0.52c-0.67,0.38 -1.33,0.77 -2.01,1.15c-0.27,0.17 -0.71,0.1 -1.01,-0.03c-1.09,-0.41 -2.44,-0.65 -3.68,-0.44c-1.88,0.33 -3.27,1.18 -4.6,1.96c-0.92,0.59 -1.88,1.25 -2.1,2.08c-0.18,0.64 0.56,1.29 1.53,1.59c0.75,0.18 1.52,-0.06 2.16,-0.24c3.53,-1.16 6.39,-2.9 10.11,-3.88c1.53,-0.41 3.43,-0.59 5.06,-0.09c2.17,0.67 3.94,1.95 4.16,3.37c0.19,1.16 -0.54,2.27 -1.53,3.22c-1.35,1.26 -3.16,2.32 -5.13,3.24c-1.89,0.86 -4.1,1.6 -6.61,1.65c-2.12,0.05 -4.25,-0.55 -5.73,-1.47c-0.24,-0.15 -0.18,-0.4 0.08,-0.52c0.66,-0.39 1.33,-0.78 2.01,-1.16c0.25,-0.17 0.69,-0.14 0.97,0c0.98,0.43 2.19,0.77 3.4,0.65c2.3,-0.25 3.94,-1.27 5.53,-2.16c1.24,-0.78 2.67,-1.63 2.82,-2.76c0.05,-0.62 -0.65,-1.22 -1.54,-1.56c-0.79,-0.26 -1.71,-0.07 -2.43,0.12c-3.65,1.05 -6.28,2.96 -10.02,3.92c-1.51,0.4 -3.35,0.57 -4.96,0.12c-2.28,-0.63 -4.1,-1.99 -4.15,-3.46c-0.08,-1.44 1.17,-2.73 2.65,-3.79z" fill="#8CC84B"/>
</g>
</g>
<g id="Group 7_2" data-node-id="1:491">
<g id="flutter_3" data-node-id="1:492">
<g id="flutter_4" data-node-id="1:493">
<path id="Vector_51" data-node-id="1:494" d="M391.73,98.8864l-21.1,0.01l0.09,-39.55l21.13,-12.19zM423.41,65.3764l-21.12,12.2l-0.02,9.12l21.1,-0.02" fill="#42A5F5" fill-opacity="0.8"/>
<path id="Vector_52" data-node-id="1:495" d="M423.34,98.8564l15.8,-0.01l21.13,-12.19l-36.9,0.02" fill="#0D47A1"/>
<path id="Vector_53" data-node-id="1:496" d="M402.27,98.8664l0.03,-12.16l21.06,-0.02l-0.02,12.16z" fill="#42A5F5"/>
<path id="Vector_54" data-node-id="1:497" d="M423.34,98.8464l0.02,-12.16h2.94l-0.02,12.16z" fill="url(#paint36_linear_1_87)"/>
<path id="Vector_55" data-node-id="1:498" d="M423.34,98.8564l10.27,-12.16l-10.25,-0.02" fill="url(#paint37_linear_1_87)"/>
</g>
</g>
<g id="vscode_3" data-node-id="1:499">
<g id="vscode_4" data-node-id="1:500">
<path id="Vector_56" data-node-id="1:501" d="M212.043,173.9364c0,0 -2.318,0.22 -1.991,-1.46l0.416,-4.12c0,0 -0.051,-1.28 2.076,-1.37l61.067,-4.96l12.582,7.26c0,0 1.958,1.15 -0.808,2.5z" fill="#2489CA"/>
<path id="Vector_57" data-node-id="1:502" d="M229.13,173.4364l-0.856,9.87c0,0 -0.24,0.92 1.903,1.1l7.94,-0.23c0,0 2.048,0.04 2.307,-1.5l2.336,-9.64z" fill="#1070B3"/>
<path id="Vector_58" data-node-id="1:503" d="M244.958,164.3664l3.955,-16.72l-12.621,-7.17c0,0 -3.435,-1.17 -4.359,1.01l-2.068,24.1z" fill="#0877B9"/>
<path id="Vector_59" data-node-id="1:504" d="M285.402,171.7964c1.93,0.01 2.77,-0.84 2.77,-0.84l6.539,-11.04c0.529,-1.59 -1.084,-2.26 -1.084,-2.26l-37.566,-21.69c-1.651,-0.95 -3.921,-0.3 -3.921,-0.3l-16.454,3.34c-3.924,0.54 -3.753,2.48 -3.753,2.48c0,0 0.581,-2.03 4.359,-1.01l49.671,28.68c0.342,0.2 0.604,0.44 0.76,0.69c0.296,0.51 0.209,1.2 -1.545,1.94z" fill="#3C99D4"/>
</g>
</g>
<g id="react_3" data-node-id="1:505">
<g id="react_4" data-node-id="1:506">
<path id="Vector_60" data-node-id="1:507" d="M130.771,237.8764c2.852,-1.64 2.84,-4.32 -0.027,-5.97c-2.868,-1.66 -7.504,-1.67 -10.357,-0.02c-2.852,1.65 -2.84,4.32 0.027,5.98c2.868,1.65 7.505,1.66 10.357,0.01z" fill="#61DAFB"/>
<path id="Vector_61" data-node-id="1:508" d="M136.216,241.0264c15.305,-8.84 22.95,-18.75 17.076,-22.14c-5.875,-3.39 -23.045,1.02 -38.35,9.86c-15.305,8.83 -22.95,18.75 -17.076,22.14c5.875,3.39 23.045,-1.03 38.35,-9.86z" stroke="#61DAFB" stroke-width="5"/>
<path id="Vector_62" data-node-id="1:509" d="M121.734,243.2464c20.977,3.27 39.704,2.18 41.828,-2.43c2.123,-4.62 -13.161,-11.02 -34.138,-14.29c-20.977,-3.28 -39.704,-2.19 -41.828,2.43c-2.123,4.62 13.161,11.01 34.138,14.29z" stroke="#61DAFB" stroke-width="5"/>
<path id="Vector_63" data-node-id="1:510" d="M111.097,237.1064c5.672,12.11 16.754,20.93 24.752,19.71c7.998,-1.23 9.884,-12.04 4.212,-24.15c-5.672,-12.11 -16.754,-20.94 -24.752,-19.71c-7.998,1.22 -9.884,12.04 -4.212,24.15z" stroke="#61DAFB" stroke-width="5"/>
</g>
</g>
</g>
</g>
</g><g id="Group 12_2" data-node-id="1:511">
<g id="Rectangle 29_3" data-node-id="1:512" style="mix-blend-mode:luminosity">
<rect width="454.358" height="284.554" transform="matrix(0.866025, -0.5, 0.866025, 0.5, 1, 354.75639999999976)" fill="url(#paint38_linear_1_87)" fill-opacity="0.2"/>
</g>
</g><g id="Group 14" data-node-id="1:540" style="mix-blend-mode:luminosity">
<rect id="Rectangle 29_4" data-node-id="1:541" width="454.358" height="284.554" transform="matrix(0.866025, -0.5, 0.866025, 0.5, 1, 392.75639999999976)" fill="url(#paint39_linear_1_87)" fill-opacity="0.2"/>
</g></g><defs><linearGradient id="paint28_linear_1_87" x1="-6.13604e-07" y1="13.2028" x2="454.61" y2="300.311" gradientUnits="userSpaceOnUse">
<stop stop-color="#002B6B"/>
<stop offset="1" stop-color="#0066FF"/>
</linearGradient><linearGradient id="paint29_linear_1_87" x1="191.65800000000002" y1="312.33640000000014" x2="228.00300000000004" y2="311.8564000000001" gradientUnits="userSpaceOnUse">
<stop stop-color="#387EB8"/>
<stop offset="1" stop-color="#366994"/>
</linearGradient><linearGradient id="paint30_linear_1_87" x1="214.48400000000004" y1="312.5963999999999" x2="252.563" y2="310.5763999999999" gradientUnits="userSpaceOnUse">
<stop stop-color="#FFE052"/>
<stop offset="1" stop-color="#FFC331"/>
</linearGradient><linearGradient id="paint31_linear_1_87" x1="423.3499999999999" y1="92.76639999999998" x2="426.28999999999996" y2="92.77639999999974" gradientUnits="userSpaceOnUse">
<stop offset="0.2" stop-opacity="0.15"/>
<stop offset="0.85" stop-color="#616161" stop-opacity="0.01"/>
</linearGradient><linearGradient id="paint32_linear_1_87" x1="418.06999999999994" y1="95.8163999999997" x2="425.9100000000001" y2="82.2464" gradientUnits="userSpaceOnUse">
<stop offset="0.2" stop-opacity="0.55"/>
<stop offset="0.85" stop-color="#616161" stop-opacity="0.01"/>
</linearGradient><linearGradient id="paint33_linear_1_87" x1="-6.13604e-07" y1="13.2028" x2="454.61" y2="300.311" gradientUnits="userSpaceOnUse">
<stop stop-color="#002B6B"/>
<stop offset="1" stop-color="#0066FF"/>
</linearGradient><linearGradient id="paint34_linear_1_87" x1="191.65800000000002" y1="312.33640000000014" x2="228.00300000000004" y2="311.8564000000001" gradientUnits="userSpaceOnUse">
<stop stop-color="#387EB8"/>
<stop offset="1" stop-color="#366994"/>
</linearGradient><linearGradient id="paint35_linear_1_87" x1="214.48400000000004" y1="312.5963999999999" x2="252.563" y2="310.5763999999999" gradientUnits="userSpaceOnUse">
<stop stop-color="#FFE052"/>
<stop offset="1" stop-color="#FFC331"/>
</linearGradient><linearGradient id="paint36_linear_1_87" x1="423.3499999999999" y1="92.76639999999998" x2="426.28999999999996" y2="92.77639999999974" gradientUnits="userSpaceOnUse">
<stop offset="0.2" stop-opacity="0.15"/>
<stop offset="0.85" stop-color="#616161" stop-opacity="0.01"/>
</linearGradient><linearGradient id="paint37_linear_1_87" x1="418.06999999999994" y1="95.8163999999997" x2="425.9100000000001" y2="82.2464" gradientUnits="userSpaceOnUse">
<stop offset="0.2" stop-opacity="0.55"/>
<stop offset="0.85" stop-color="#616161" stop-opacity="0.01"/>
</linearGradient><linearGradient id="paint38_linear_1_87" x1="-6.13604e-07" y1="13.2028" x2="454.61" y2="300.311" gradientUnits="userSpaceOnUse">
<stop stop-color="#002B6B"/>
<stop offset="1" stop-color="#0066FF"/>
</linearGradient><linearGradient id="paint39_linear_1_87" x1="-6.13604e-07" y1="13.2028" x2="454.61" y2="300.311" gradientUnits="userSpaceOnUse">
<stop stop-color="#002B6B"/>
<stop offset="1" stop-color="#0066FF"/>
</linearGradient><clipPath id="clip0_1_87">
<rect width="1440" height="6020" fill="white" x="-703" y="-1998.4236"/>
</clipPath></defs></svg>